<?xml version="1.0" encoding="utf-8"?>
<!-- Generator: Adobe Illustrator 16.0.3, SVG Export Plug-In . SVG Version: 6.00 Build 0)  -->
<!DOCTYPE svg PUBLIC "-//W3C//DTD SVG 1.1//EN" "http://www.w3.org/Graphics/SVG/1.1/DTD/svg11.dtd">
<svg version="1.1" id="Capa_1" xmlns="http://www.w3.org/2000/svg" xmlns:xlink="http://www.w3.org/1999/xlink" x="0px" y="0px"
	 width="425.2px" height="226.77px" viewBox="0 0 425.2 226.77" enable-background="new 0 0 425.2 226.77" xml:space="preserve">
<path fill="#851D8A" d="M23.376,119.601c0.802,1.098,1.708,2.139,2.609,3.124c19.825,21.705,44.847,38.829,72.476,49.601
	c1.903,0.741,3.936,1.466,5.952,1.111c3.896-0.687,5.88-4.895,7.079-8.589c4.833-14.896,7.238-30.547,7.096-46.176
	c77.517-6.142,155.619-5.174,232.953,2.886c1.797,0.188,3.665,0.404,5.188,1.357c1.785,1.118,2.811,3.065,3.794,4.904
	c10.112,18.91,24.396,35.671,41.584,48.796c2.566-12.459,1.272-25.656-3.669-37.408c-3.339-7.939-8.366-15.499-8.942-24.066
	c-0.654-9.709,4.504-18.74,8.662-27.578c4.158-8.837,7.412-19.291,3.095-28.054c-17.875,13.54-32.728,30.885-43.226,50.482
	c-79.477-8.617-159.756-10.109-239.511-4.449c-0.537-10.567-2.171-21.081-4.866-31.325c-1.156-4.387-2.649-8.957-6.089-11.986
	c-9.112-8.024-30.462,6.938-38.763,11.497c-14.72,8.088-28.593,17.652-41.322,28.509c-3.196,2.728-6.552,5.99-6.749,10.139
	C20.602,115.008,21.78,117.415,23.376,119.601"/>
<path fill="#FFFFFF" d="M86.504,99.844c0,7.345-5.282,13.3-11.799,13.3c-6.515,0-11.797-5.955-11.797-13.3
	c0-7.347,5.282-13.302,11.797-13.302C81.222,86.542,86.504,92.497,86.504,99.844"/>
<path fill="#DE037F" d="M139.5,104.679c-0.64-19.634-3.851-38.656-9.675-57.657c7.47,7.559,12.111,21.438,15.354,31.487
	c3.8,11.779,5.931,24.078,6.244,36.429c0.617,24.41-5.869,48.955-18.5,70.009c3.235-23.214,6.375-46.507,6.676-69.936
	C139.645,111.548,139.612,108.104,139.5,104.679"/>
<path fill="#E248A1" d="M171.708,107.322c-0.446-23.574-2.962-47.243-7.897-70.27c11.135,25.281,19.454,51.432,20.384,79.16
	c0.934,27.799-5.575,56.177-20.923,79.58c2.653-4.045,2.591-13.081,3.375-17.844c1.108-6.718,2.036-13.464,2.784-20.23
	c1.498-13.532,2.279-27.14,2.343-40.749C171.792,113.755,171.769,110.54,171.708,107.322"/>
<path fill="#E46FB5" d="M203.962,109.88c-0.321-21.65-2.354-43.612-7.118-64.691c10.005,18.238,16.208,38.454,17.814,59.152
	c0.616,7.943,0.575,15.924,0.22,23.881c-0.971,21.741-4.735,44.486-18.43,61.625c2.515-3.148,2.435-12.688,3.071-16.676
	c0.95-5.952,1.749-11.928,2.397-17.92c1.337-12.356,2.034-24.779,2.086-37.207C204.016,115.329,204.002,112.607,203.962,109.88"/>
<path fill="#E7A9D3" d="M235.187,103.233c-0.36-6.24-0.904-12.471-1.636-18.681c-1.242-10.551-5.479-22.34-5.306-32.776
	c6.493,2.534,11.124,23.324,12.86,29.808c3.014,11.245,4.586,22.854,4.72,34.478c0.268,22.905-5.069,45.934-16.034,66.211
	c4.251-7.858,3.712-22.479,4.538-31.268c1.057-11.236,1.508-22.527,1.354-33.809C235.621,112.537,235.455,107.882,235.187,103.233"
	/>
<path fill="#E7A9D3" d="M263.734,103.245c-0.266-4.917-0.676-9.825-1.231-14.72c-1.06-9.346-3.981-18.798-4.618-28.083
	c11.595,14.681,16.205,38.625,16.499,56.766c0.329,20.21-5.359,40.634-17.047,57.29c4.225-6.022,4.079-20.474,4.948-27.659
	c1.169-9.672,1.775-19.411,1.81-29.15C264.114,112.871,263.992,108.053,263.734,103.245"/>
<path fill="#E46FB5" d="M290.589,104.647c-0.23-4.109-0.548-8.214-0.954-12.31c-0.697-7.044-4.575-18.057-2.911-24.606
	c4.913,0.731,8.943,16.778,10.229,21.292c2.435,8.546,3.701,17.409,3.808,26.278c0.212,17.728-4.228,35.566-13.338,50.93
	c3.213-5.421,2.328-17.557,2.799-23.782c0.63-8.34,0.896-16.706,0.797-25.067C290.969,113.132,290.826,108.888,290.589,104.647"/>
<path fill="#E248A1" d="M315.43,106.145c-0.341-9.429-0.957-18.875-1.698-28.39c7.778,6.71,10.351,25.216,11.033,35.152
	c0.849,12.381-1.06,24.966-5.822,36.479c-1.042,2.519-2.437,5.208-5.012,6.22C315.787,138.995,316.025,122.596,315.43,106.145"/>
<path fill="#DE037F" d="M339.001,104.076c-0.469-5.726-1.006-11.461-0.727-17.029c4.954,3.965,6.216,11.742,7.366,17.568
	c1.671,8.473,3.333,17.29,1.102,25.637c-1.455,5.448-4.577,10.458-8.857,14.219c1.116-9.666,1.683-19.394,1.697-29.121
	C339.588,111.629,339.31,107.854,339.001,104.076"/>
<path fill="#BE63AE" d="M207.152,47.075c13.629,2.847,28.667,1.775,42.632,4.301c3.745,0.677,42.504,8.992,42.032,11.46
	c1.434-7.481,2.869-14.962,4.303-22.443c0.57-2.967,1.142-5.986,0.813-8.988c-0.574-5.241-4.087-10.083-8.949-12.339
	c-9.697-4.5-20.788,1.386-30.24,6.36c-8.204,4.319-16.713,8.047-25.341,11.48C225.888,39.5,211.228,42.113,207.152,47.075"/>
<path fill="#BC2D93" d="M135.021,190.44c8.581,1.06,17.85,5.595,26.118,8.335c0.632,0.211,1.288,0.433,1.773,0.883
	c0.582,0.539,0.836,1.324,1.067,2.074c1.464,4.72,2.927,9.438,4.39,14.155c-7.631-0.104-15.137-3.109-20.845-8.068
	C142.413,203.378,137.305,196.714,135.021,190.44"/>
<path fill="#E02A92" d="M222.982,187.618c11.056-4.493,24.983-5.515,36.73-8.632c12.449-3.305,24.766-7.095,36.907-11.361
	c22.946-8.062,49.082-17.006,69.329-30.565l-36.113,24.186c-1.896,1.269-3.81,2.552-5.39,4.186
	c-4.841,5.009-5.824,12.398-6.564,19.256c-15.808-2.589-31.905-2.81-47.871-1.857C255.124,183.717,237.563,189.121,222.982,187.618"
	/>
</svg>
