<?xml version="1.0" encoding="utf-8"?>
<!-- Generator: Adobe Illustrator 16.0.3, SVG Export Plug-In . SVG Version: 6.00 Build 0)  -->
<!DOCTYPE svg PUBLIC "-//W3C//DTD SVG 1.1//EN" "http://www.w3.org/Graphics/SVG/1.1/DTD/svg11.dtd">
<svg version="1.1" id="Capa_1" xmlns="http://www.w3.org/2000/svg" xmlns:xlink="http://www.w3.org/1999/xlink" x="0px" y="0px"
	 width="425.2px" height="226.77px" viewBox="0 0 425.2 226.77" enable-background="new 0 0 425.2 226.77" xml:space="preserve">
<path fill="#601F8A" d="M20.757,110.58c0.778,1.086,1.658,2.118,2.531,3.096c19.233,21.501,43.507,38.464,70.31,49.136
	c1.846,0.734,3.819,1.451,5.773,1.1c3.78-0.68,5.705-4.848,6.869-8.508c4.688-14.758,7.021-30.262,6.884-45.743
	c75.201-6.086,150.968-5.127,225.99,2.858c1.744,0.185,3.557,0.396,5.033,1.343c1.734,1.106,2.729,3.038,3.684,4.858
	c9.809,18.734,23.664,35.338,40.34,48.34c2.486-12.342,1.232-25.414-3.561-37.057c-3.238-7.867-8.115-15.355-8.674-23.843
	c-0.635-9.619,4.369-18.565,8.402-27.319c4.035-8.754,7.191-19.111,3.004-27.793C370,64.462,355.59,81.647,345.406,101.06
	c-77.1-8.537-154.982-10.014-232.352-4.407c-0.521-10.469-2.106-20.884-4.722-31.033c-1.12-4.345-2.569-8.872-5.906-11.873
	c-8.84-7.949-29.553,6.872-37.604,11.39c-14.28,8.013-27.74,17.487-40.088,28.243c-3.102,2.701-6.356,5.933-6.548,10.043
	C18.065,106.029,19.208,108.415,20.757,110.58"/>
<path fill="#FFFFFF" d="M81.998,91.007c0,7.276-5.125,13.176-11.445,13.176c-6.322,0-11.447-5.9-11.447-13.176
	c0-7.278,5.125-13.177,11.447-13.177C76.873,77.831,81.998,83.729,81.998,91.007"/>
<path fill="#601F8A" d="M133.41,95.796c-0.621-19.45-3.736-38.295-9.385-57.118c7.247,7.489,11.749,21.237,14.895,31.194
	c3.686,11.669,5.753,23.853,6.056,36.088c0.599,24.184-5.692,48.499-17.943,69.356c3.137-22.998,6.183-46.074,6.476-69.281
	C133.551,102.602,133.519,99.19,133.41,95.796"/>
<path fill="#601F8A" d="M164.655,98.415c-0.433-23.354-2.875-46.802-7.661-69.615c10.802,25.046,18.873,50.953,19.775,78.422
	c0.906,27.538-5.409,55.655-20.298,78.838c2.573-4.008,2.514-12.959,3.275-17.678c1.074-6.654,1.974-13.34,2.7-20.041
	c1.454-13.404,2.211-26.885,2.275-40.37C164.736,104.789,164.714,101.603,164.655,98.415"/>
<path fill="#601F8A" d="M195.945,100.95c-0.312-21.447-2.283-43.205-6.904-64.087c9.706,18.067,15.722,38.094,17.282,58.599
	c0.597,7.869,0.556,15.775,0.212,23.659c-0.941,21.539-4.595,44.07-17.878,61.049c2.439-3.119,2.36-12.568,2.977-16.52
	c0.922-5.896,1.698-11.814,2.327-17.752c1.298-12.242,1.972-24.551,2.025-36.86C195.997,106.348,195.985,103.65,195.945,100.95"/>
<path fill="#601F8A" d="M226.238,94.366c-0.35-6.184-0.881-12.355-1.59-18.508c-1.203-10.453-5.314-22.131-5.145-32.47
	c6.299,2.509,10.789,23.105,12.477,29.53c2.922,11.138,4.447,22.64,4.578,34.153c0.258,22.694-4.918,45.507-15.557,65.595
	c4.123-7.785,3.602-22.27,4.404-30.977c1.025-11.131,1.463-22.316,1.313-33.494C226.658,103.583,226.498,98.97,226.238,94.366"/>
<path fill="#601F8A" d="M253.932,94.375c-0.258-4.87-0.656-9.733-1.195-14.581c-1.027-9.259-3.861-18.625-4.48-27.822
	c11.25,14.544,15.723,38.264,16.006,56.236c0.32,20.021-5.199,40.253-16.537,56.757c4.1-5.969,3.957-20.283,4.801-27.402
	c1.135-9.582,1.723-19.229,1.756-28.879C254.299,103.913,254.182,99.142,253.932,94.375"/>
<path fill="#601F8A" d="M279.982,95.766c-0.223-4.07-0.529-8.138-0.926-12.195c-0.674-6.978-4.436-17.887-2.824-24.377
	c4.77,0.726,8.676,16.622,9.926,21.094c2.361,8.466,3.59,17.246,3.691,26.033c0.207,17.561-4.102,35.234-12.939,50.455
	c3.117-5.371,2.26-17.393,2.715-23.561c0.613-8.264,0.869-16.549,0.775-24.834C280.352,104.173,280.213,99.966,279.982,95.766"/>
<path fill="#601F8A" d="M304.082,97.249c-0.332-9.341-0.93-18.7-1.646-28.125c7.545,6.648,10.041,24.981,10.701,34.824
	c0.824,12.265-1.027,24.732-5.646,36.138c-1.012,2.496-2.365,5.16-4.863,6.164C304.43,129.793,304.66,113.549,304.082,97.249"/>
<path fill="#601F8A" d="M326.947,95.2c-0.453-5.673-0.975-11.355-0.705-16.872c4.809,3.93,6.031,11.632,7.146,17.406
	c1.621,8.394,3.234,17.127,1.07,25.398c-1.414,5.396-4.441,10.361-8.592,14.084c1.082-9.574,1.631-19.211,1.645-28.849
	C327.518,102.683,327.248,98.943,326.947,95.2"/>
<path fill="#601F8A" d="M199.041,38.73c13.222,2.82,27.809,1.758,41.358,4.261c3.633,0.671,41.234,8.909,40.773,11.353
	c1.395-7.41,2.785-14.821,4.178-22.233c0.551-2.939,1.105-5.93,0.787-8.903c-0.557-5.193-3.963-9.989-8.682-12.225
	c-9.408-4.458-20.166,1.372-29.338,6.3c-7.957,4.278-16.213,7.972-24.578,11.374C217.217,31.226,202.994,33.815,199.041,38.73"/>
<path fill="#5F1E85" d="M129.064,180.76c8.327,1.049,17.317,5.541,25.337,8.256c0.615,0.207,1.251,0.428,1.721,0.875
	c0.564,0.533,0.811,1.313,1.036,2.057c1.419,4.672,2.839,9.348,4.257,14.021c-7.402-0.104-14.682-3.082-20.22-7.994
	C136.236,193.576,131.281,186.973,129.064,180.76"/>
<path fill="#5F1E85" d="M214.396,177.963c10.727-4.451,24.238-5.463,35.635-8.551c12.078-3.273,24.025-7.027,35.803-11.258
	c22.262-7.984,47.615-16.846,67.258-30.277l-35.033,23.959c-1.84,1.258-3.699,2.529-5.229,4.146
	c-4.699,4.961-5.652,12.283-6.369,19.076c-15.334-2.564-30.953-2.783-46.443-1.838C245.578,174.098,228.541,179.453,214.396,177.963
	"/>
</svg>
