<?xml version="1.0" encoding="utf-8"?>
<!-- Generator: Adobe Illustrator 16.0.3, SVG Export Plug-In . SVG Version: 6.00 Build 0)  -->
<!DOCTYPE svg PUBLIC "-//W3C//DTD SVG 1.1//EN" "http://www.w3.org/Graphics/SVG/1.1/DTD/svg11.dtd">
<svg version="1.1" id="Capa_1" xmlns="http://www.w3.org/2000/svg" xmlns:xlink="http://www.w3.org/1999/xlink" x="0px" y="0px"
	 width="425.2px" height="226.77px" viewBox="0 0 425.2 226.77" enable-background="new 0 0 425.2 226.77" xml:space="preserve">
<path fill="#26247C" d="M401.281,116.311c-0.801,1.094-1.709,2.139-2.609,3.123c-19.824,21.705-44.846,38.83-72.477,49.602
	c-1.901,0.74-3.936,1.465-5.95,1.109c-3.896-0.684-5.881-4.895-7.08-8.586c-4.834-14.898-7.238-30.545-7.095-46.178
	c-77.521-6.142-155.623-5.172-232.955,2.887c-1.797,0.189-3.665,0.402-5.189,1.357c-1.785,1.119-2.811,3.064-3.793,4.902
	c-10.113,18.914-24.396,35.674-41.583,48.799c-2.567-12.459-1.272-25.654,3.668-37.41c3.339-7.939,8.364-15.498,8.942-24.066
	c0.654-9.709-4.502-18.741-8.662-27.577c-4.16-8.838-7.413-19.291-3.096-28.055C41.277,69.758,56.129,87.104,66.629,106.7
	c79.477-8.617,159.759-10.108,239.509-4.448c0.538-10.568,2.173-21.079,4.869-31.325c1.155-4.385,2.65-8.957,6.089-11.984
	c9.11-8.025,30.463,6.936,38.762,11.496c14.72,8.088,28.594,17.653,41.324,28.508c3.195,2.729,6.552,5.991,6.747,10.138
	C404.057,111.717,402.879,114.125,401.281,116.311"/>
<path fill="#FFFFFF" d="M338.154,96.554c0,7.346,5.28,13.3,11.797,13.3c6.516,0,11.798-5.954,11.798-13.3
	c0-7.347-5.282-13.301-11.798-13.301C343.435,83.252,338.154,89.207,338.154,96.554"/>
<path fill="#334D89" d="M285.156,101.388c0.64-19.634,3.852-38.657,9.675-57.657c-7.47,7.56-12.11,21.438-15.353,31.489
	c-3.8,11.779-5.931,24.077-6.242,36.429c-0.619,24.412,5.864,48.953,18.496,70.008c-3.234-23.213-6.374-46.506-6.676-69.934
	C285.013,108.258,285.044,104.813,285.156,101.388"/>
<path fill="#316193" d="M252.95,104.031c0.444-23.575,2.961-47.243,7.896-70.269c-11.134,25.281-19.453,51.432-20.384,79.159
	c-0.936,27.8,5.576,56.181,20.923,79.58c-2.652-4.043-2.59-13.082-3.376-17.842c-1.107-6.719-2.034-13.463-2.783-20.23
	c-1.498-13.533-2.279-27.139-2.345-40.75C252.865,110.465,252.889,107.249,252.95,104.031"/>
<path fill="#4E7DA1" d="M220.695,106.59c0.32-21.649,2.354-43.612,7.118-64.693c-10.008,18.241-16.208,38.454-17.815,59.154
	c-0.617,7.942-0.574,15.922-0.219,23.885c0.969,21.738,4.735,44.482,18.43,61.621c-2.515-3.15-2.434-12.688-3.071-16.674
	c-0.947-5.955-1.749-11.93-2.396-17.924c-1.337-12.354-2.033-24.779-2.088-37.205C220.642,112.039,220.655,109.315,220.695,106.59"
	/>
<path fill="#68A3B5" d="M189.47,99.943c0.36-6.241,0.906-12.472,1.637-18.683c1.241-10.55,5.478-22.337,5.305-32.774
	c-6.493,2.533-11.122,23.323-12.861,29.806c-3.014,11.245-4.583,22.855-4.721,34.477c-0.265,22.907,5.07,45.934,16.037,66.213
	c-4.251-7.861-3.712-22.48-4.54-31.268c-1.055-11.238-1.506-22.531-1.354-33.811C189.036,109.247,189.2,104.593,189.47,99.943"/>
<path fill="#68A3B5" d="M160.924,99.953c0.264-4.916,0.675-9.825,1.229-14.718c1.061-9.347,3.983-18.799,4.619-28.083
	c-11.593,14.682-16.204,38.626-16.5,56.767c-0.328,20.208,5.36,40.632,17.048,57.291c-4.226-6.021-4.08-20.477-4.949-27.662
	c-1.17-9.67-1.774-19.408-1.809-29.15C160.543,109.582,160.664,104.765,160.924,99.953"/>
<path fill="#4E7DA1" d="M134.069,101.357c0.229-4.109,0.547-8.213,0.952-12.309c0.697-7.046,4.575-18.057,2.913-24.607
	c-4.915,0.731-8.944,16.778-10.23,21.292c-2.434,8.546-3.701,17.408-3.808,26.278c-0.213,17.726,4.229,35.567,13.338,50.929
	c-3.214-5.418-2.328-17.555-2.799-23.783c-0.63-8.338-0.896-16.705-0.797-25.066C133.688,109.844,133.832,105.598,134.069,101.357"
	/>
<path fill="#316193" d="M109.226,102.854c0.342-9.429,0.958-18.876,1.698-28.389c-7.778,6.712-10.352,25.215-11.032,35.153
	c-0.85,12.381,1.06,24.965,5.821,36.479c1.042,2.52,2.438,5.207,5.011,6.221C108.87,135.703,108.63,119.307,109.226,102.854"/>
<path fill="#2A7891" d="M217.505,43.784c-13.629,2.848-28.667,1.774-42.633,4.3c-3.745,0.677-42.504,8.994-42.031,11.461
	l-4.305-22.443c-0.569-2.966-1.14-5.985-0.812-8.987c0.575-5.242,4.085-10.082,8.95-12.338c9.698-4.501,20.789,1.383,30.241,6.359
	c8.203,4.317,16.712,8.046,25.336,11.479C198.768,36.209,213.429,38.821,217.505,43.784"/>
<path fill="#2A7891" d="M289.637,187.152c-8.583,1.057-17.851,5.594-26.119,8.336c-0.633,0.207-1.289,0.43-1.773,0.879
	c-0.58,0.539-0.835,1.324-1.068,2.076c-1.461,4.717-2.927,9.436-4.388,14.154c7.631-0.104,15.135-3.111,20.844-8.068
	C282.244,200.09,287.352,193.424,289.637,187.152"/>
<path fill="#616BB0" d="M201.673,184.328c-11.055-4.492-24.982-5.516-36.729-8.633c-12.451-3.303-24.764-7.096-36.908-11.361
	c-22.945-8.061-49.083-17.004-69.33-30.563l36.114,24.184c1.896,1.268,3.81,2.551,5.388,4.184c4.844,5.01,5.825,12.4,6.567,19.258
	c15.807-2.59,31.904-2.811,47.871-1.857C169.533,180.426,187.095,185.828,201.673,184.328"/>
</svg>
