<?xml version="1.0" encoding="utf-8"?>
<!-- Generator: Adobe Illustrator 16.0.3, SVG Export Plug-In . SVG Version: 6.00 Build 0)  -->
<!DOCTYPE svg PUBLIC "-//W3C//DTD SVG 1.1//EN" "http://www.w3.org/Graphics/SVG/1.1/DTD/svg11.dtd">
<svg version="1.1" id="Capa_1" xmlns="http://www.w3.org/2000/svg" xmlns:xlink="http://www.w3.org/1999/xlink" x="0px" y="0px"
	 width="425.2px" height="226.77px" viewBox="0 0 425.2 226.77" enable-background="new 0 0 425.2 226.77" xml:space="preserve">
<path fill="#FFFFFF" d="M333.252,94.637c0,7.288,5.132,13.196,11.462,13.196s11.462-5.908,11.462-13.196
	s-5.132-13.196-11.462-13.196S333.252,87.349,333.252,94.637"/>
<path fill="#1D1082" d="M400.624,114.401c-0.777,1.088-1.657,2.119-2.53,3.096c-19.233,21.502-43.507,38.467-70.311,49.137
	c-1.845,0.734-3.818,1.453-5.773,1.102c-3.779-0.682-5.704-4.85-6.867-8.51c-4.689-14.758-7.022-30.261-6.885-45.744
	c-75.199-6.083-150.968-5.125-225.99,2.859c-1.743,0.186-3.556,0.398-5.033,1.344c-1.733,1.107-2.727,3.037-3.681,4.859
	c-9.81,18.732-23.665,35.336-40.342,48.34c-2.489-12.344-1.234-25.416,3.56-37.059c3.239-7.866,8.116-15.354,8.676-23.842
	c0.634-9.618-4.369-18.565-8.404-27.319c-4.035-8.755-7.191-19.112-3.002-27.793c17.34,13.414,31.749,30.598,41.934,50.011
	c77.101-8.537,154.982-10.014,232.351-4.407c0.521-10.469,2.105-20.883,4.722-31.032c1.12-4.346,2.569-8.873,5.906-11.874
	c8.839-7.95,29.553,6.872,37.604,11.39c14.28,8.012,27.74,17.487,40.087,28.242c3.103,2.702,6.357,5.934,6.55,10.043
	C403.316,109.852,402.173,112.235,400.624,114.401"/>
<path fill="#FFFFFF" d="M339.384,94.829c0,7.277,5.124,13.177,11.445,13.177s11.445-5.9,11.445-13.177s-5.124-13.177-11.445-13.177
	S339.384,87.552,339.384,94.829"/>
<path fill="#1D1082" d="M287.972,99.619c0.62-19.45,3.736-38.295,9.385-57.118c-7.247,7.489-11.749,21.237-14.895,31.193
	c-3.687,11.669-5.753,23.854-6.056,36.089c-0.6,24.183,5.691,48.498,17.944,69.357c-3.139-22.998-6.184-46.074-6.477-69.283
	C287.831,106.424,287.863,103.012,287.972,99.619"/>
<path fill="#1D1082" d="M256.727,102.237c0.433-23.354,2.873-46.802,7.662-69.614c-10.804,25.046-18.875,50.952-19.777,78.422
	c-0.905,27.537,5.41,55.65,20.299,78.834c-2.574-4.006-2.514-12.959-3.275-17.676c-1.074-6.654-1.974-13.338-2.701-20.041
	c-1.451-13.404-2.209-26.886-2.272-40.369C256.645,108.611,256.667,105.425,256.727,102.237"/>
<path fill="#1D1082" d="M225.437,104.771c0.312-21.447,2.284-43.205,6.905-64.087c-9.707,18.068-15.723,38.094-17.282,58.6
	c-0.599,7.868-0.558,15.775-0.212,23.658c0.939,21.538,4.593,44.07,17.878,61.049c-2.44-3.119-2.361-12.57-2.978-16.52
	c-0.922-5.896-1.699-11.816-2.328-17.752c-1.297-12.242-1.971-24.551-2.024-36.86C225.385,110.169,225.397,107.474,225.437,104.771"
	/>
<path fill="#1D1082" d="M195.145,98.188c0.35-6.183,0.879-12.355,1.587-18.508c1.205-10.452,5.315-22.131,5.147-32.47
	c-6.299,2.511-10.791,23.105-12.477,29.53c-2.924,11.139-4.448,22.641-4.579,34.155c-0.259,22.69,4.918,45.505,15.555,65.593
	c-4.123-7.785-3.602-22.268-4.402-30.977c-1.024-11.131-1.462-22.316-1.314-33.493C194.724,107.404,194.883,102.793,195.145,98.188"
	/>
<path fill="#1D1082" d="M167.451,98.197c0.257-4.87,0.655-9.733,1.193-14.581c1.029-9.259,3.863-18.623,4.481-27.82
	c-11.248,14.544-15.721,38.263-16.007,56.235c-0.318,20.021,5.2,40.255,16.54,56.757c-4.101-5.967-3.958-20.283-4.802-27.402
	c-1.135-9.582-1.721-19.229-1.756-28.879C167.082,107.735,167.2,102.963,167.451,98.197"/>
<path fill="#1D1082" d="M141.399,99.588c0.223-4.071,0.531-8.137,0.924-12.195c0.677-6.979,4.439-17.888,2.826-24.377
	c-4.768,0.725-8.678,16.622-9.925,21.093c-2.361,8.467-3.59,17.246-3.693,26.033c-0.206,17.561,4.102,35.235,12.939,50.455
	c-3.117-5.369-2.259-17.393-2.715-23.563c-0.61-8.26-0.868-16.549-0.773-24.832C141.03,107.995,141.169,103.789,141.399,99.588"/>
<path fill="#1D1082" d="M117.3,101.071c0.332-9.341,0.928-18.699,1.647-28.125c-7.545,6.648-10.042,24.981-10.703,34.825
	c-0.824,12.263,1.029,24.732,5.648,36.138c1.011,2.494,2.365,5.158,4.863,6.162C116.953,133.614,116.722,117.368,117.3,101.071"/>
<path fill="#1D1082" d="M94.434,99.022c0.454-5.672,0.975-11.354,0.705-16.871c-4.806,3.929-6.03,11.633-7.146,17.405
	c-1.621,8.394-3.235,17.128-1.069,25.398c1.413,5.396,4.44,10.359,8.593,14.085c-1.084-9.576-1.633-19.212-1.647-28.85
	C93.864,106.504,94.135,102.765,94.434,99.022"/>
<path fill="#1D1082" d="M222.342,42.553c-13.223,2.821-27.811,1.758-41.359,4.261c-3.632,0.671-41.233,8.909-40.774,11.354
	l-4.176-22.234c-0.552-2.939-1.107-5.93-0.788-8.903c0.557-5.192,3.963-9.988,8.682-12.225c9.408-4.458,20.167,1.373,29.337,6.301
	c7.959,4.278,16.213,7.972,24.58,11.373C204.165,35.049,218.388,37.637,222.342,42.553"/>
<path fill="#1D1082" d="M292.317,184.581c-8.326,1.049-17.317,5.541-25.338,8.256c-0.615,0.209-1.25,0.43-1.722,0.875
	c-0.563,0.535-0.81,1.313-1.035,2.057c-1.42,4.672-2.838,9.348-4.258,14.021c7.402-0.104,14.684-3.082,20.222-7.994
	C285.146,197.396,290.102,190.794,292.317,184.581"/>
<path fill="#1D1082" d="M206.984,181.784c-10.726-4.451-24.237-5.463-35.632-8.551c-12.078-3.273-24.026-7.031-35.806-11.256
	c-22.259-7.986-47.614-16.847-67.256-30.279c11.677,7.985,23.356,15.972,35.033,23.957c1.841,1.258,3.697,2.529,5.229,4.15
	c4.698,4.959,5.65,12.281,6.369,19.074c15.334-2.566,30.952-2.783,46.441-1.84C175.803,177.919,192.841,183.272,206.984,181.784"/>
</svg>
